<svg xmlns="http://www.w3.org/2000/svg" width="805" height="250"><rect width="805" height="250" x="0" y="0" fill="#FFFFFF" id="background"/><g id="viz"><g transform="translate(0,0)"><g transform="translate(150,50)"><g class="bars"><rect id="undefined - Chocolates" x="0" y="17.89473684210526" height="20.13157894736842" width="43" fill="#1f77b4"/><rect id="undefined - Caramelos Masticables" x="0" y="55.921052631578945" height="20.13157894736842" width="408.5" fill="#1f77b4"/><rect id="undefined - Gomitas" x="0" y="131.9736842105263" height="20.13157894736842" width="645" fill="#1f77b4"/><rect id="undefined - Pastillas" x="0" y="93.94736842105263" height="20.13157894736842" width="516" fill="#1f77b4"/></g><g id="xAxis" transform="translate(0,170)" fill="none" font-size="10" font-family="sans-serif" text-anchor="middle"><path class="domain" stroke="currentColor" d="M0,6V0H645V6"/><g class="tick" opacity="1" transform="translate(0,0)"><line stroke="currentColor" y2="6"/><text fill="currentColor" y="9" dy="0.71em">0</text></g><g class="tick" opacity="1" transform="translate(43,0)"><line stroke="currentColor" y2="6"/><text fill="currentColor" y="9" dy="0.71em">2</text></g><g class="tick" opacity="1" transform="translate(86,0)"><line stroke="currentColor" y2="6"/><text fill="currentColor" y="9" dy="0.71em">4</text></g><g class="tick" opacity="1" transform="translate(129,0)"><line stroke="currentColor" y2="6"/><text fill="currentColor" y="9" dy="0.71em">6</text></g><g class="tick" opacity="1" transform="translate(172,0)"><line stroke="currentColor" y2="6"/><text fill="currentColor" y="9" dy="0.71em">8</text></g><g class="tick" opacity="1" transform="translate(215,0)"><line stroke="currentColor" y2="6"/><text fill="currentColor" y="9" dy="0.71em">10</text></g><g class="tick" opacity="1" transform="translate(258,0)"><line stroke="currentColor" y2="6"/><text fill="currentColor" y="9" dy="0.71em">12</text></g><g class="tick" opacity="1" transform="translate(301,0)"><line stroke="currentColor" y2="6"/><text fill="currentColor" y="9" dy="0.71em">14</text></g><g class="tick" opacity="1" transform="translate(344,0)"><line stroke="currentColor" y2="6"/><text fill="currentColor" y="9" dy="0.71em">16</text></g><g class="tick" opacity="1" transform="translate(387,0)"><line stroke="currentColor" y2="6"/><text fill="currentColor" y="9" dy="0.71em">18</text></g><g class="tick" opacity="1" transform="translate(430,0)"><line stroke="currentColor" y2="6"/><text fill="currentColor" y="9" dy="0.71em">20</text></g><g class="tick" opacity="1" transform="translate(472.99999999999994,0)"><line stroke="currentColor" y2="6"/><text fill="currentColor" y="9" dy="0.71em">22</text></g><g class="tick" opacity="1" transform="translate(516,0)"><line stroke="currentColor" y2="6"/><text fill="currentColor" y="9" dy="0.71em">24</text></g><g class="tick" opacity="1" transform="translate(559,0)"><line stroke="currentColor" y2="6"/><text fill="currentColor" y="9" dy="0.71em">26</text></g><g class="tick" opacity="1" transform="translate(602,0)"><line stroke="currentColor" y2="6"/><text fill="currentColor" y="9" dy="0.71em">28</text></g><g class="tick" opacity="1" transform="translate(645,0)"><line stroke="currentColor" y2="6"/><text fill="currentColor" y="9" dy="0.71em">30</text></g><text font-family="Arial, sans-serif" font-size="10" x="645" dy="-5" fill="black" font-weight="bold" text-anchor="end">Cantidad [sum]</text></g><g id="yAxis" transform="translate(0,0)" fill="none" font-size="10" font-family="sans-serif" text-anchor="end"><path class="domain" stroke="currentColor" d="M0,0V170"/><g class="tick" opacity="1" transform="translate(0,27.960526315789473)"><line stroke="currentColor" x2="-6"/><text fill="currentColor" x="-9" dy="0.32em">Chocolates</text></g><g class="tick" opacity="1" transform="translate(0,65.98684210526315)"><line stroke="currentColor" x2="-6"/><text fill="currentColor" x="-9" dy="0.32em">Caramelos Masticables</text></g><g class="tick" opacity="1" transform="translate(0,104.01315789473684)"><line stroke="currentColor" x2="-6"/><text fill="currentColor" x="-9" dy="0.32em">Pastillas</text></g><g class="tick" opacity="1" transform="translate(0,142.03947368421052)"><line stroke="currentColor" x2="-6"/><text fill="currentColor" x="-9" dy="0.32em">Gomitas</text></g><text font-family="Arial, sans-serif" font-size="10" x="4" fill="black" font-weight="bold" text-anchor="start" dominant-baseline="hanging">Categoría</text></g></g><text y="4" x="4" style="font-family: Arial, sans-serif; font-size: 12px; fill: black; font-weight: bold; dominant-baseline: hanging;"/></g></g></svg>